<?xml version="1.0" encoding="UTF-8" standalone="no"?>
<!-- Created with Inkscape (http://www.inkscape.org/) -->

<svg
   width="128"
   height="128"
   viewBox="0 0 33.866667 33.866667"
   version="1.1"
   id="svg5"
   inkscape:version="1.1 (c4e8f9ed74, 2021-05-24)"
   sodipodi:docname="appimagepool.svg"
   inkscape:export-filename="/run/media/prateeksu/C8409541409536E2/Projects/appimagepool/assets/appimagepool.png"
   inkscape:export-xdpi="96"
   inkscape:export-ydpi="96"
   xmlns:inkscape="http://www.inkscape.org/namespaces/inkscape"
   xmlns:sodipodi="http://sodipodi.sourceforge.net/DTD/sodipodi-0.dtd"
   xmlns="http://www.w3.org/2000/svg"
   xmlns:svg="http://www.w3.org/2000/svg">
  <sodipodi:namedview
     id="namedview7"
     pagecolor="#505050"
     bordercolor="#eeeeee"
     borderopacity="1"
     inkscape:pageshadow="0"
     inkscape:pageopacity="0"
     inkscape:pagecheckerboard="0"
     inkscape:document-units="px"
     showgrid="false"
     inkscape:zoom="4"
     inkscape:cx="-11.875"
     inkscape:cy="70.25"
     inkscape:window-width="1920"
     inkscape:window-height="1011"
     inkscape:window-x="0"
     inkscape:window-y="32"
     inkscape:window-maximized="1"
     inkscape:current-layer="layer1"
     width="128px" />
  <defs
     id="defs2" />
  <g
     inkscape:label="Layer 1"
     inkscape:groupmode="layer"
     id="layer1">
    <path
       id="path6511"
       style="fill:#167abf;fill-opacity:1;stroke:#ffffff;stroke-width:0.328954;stroke-miterlimit:4;stroke-dasharray:none;stroke-opacity:0.196383"
       d="m 16.139621,5.2973829 c -1.822511,0 -1.941701,0.00891 -2.16051,0.1647103 -0.144243,0.1027126 -0.258998,0.1949328 -0.305474,0.3235804 -0.03537,0.097884 -0.04085,0.1973367 -0.05023,0.2727649 -0.0075,0.06017 -0.03563,1.5655954 -0.03563,4.3473045 v 4.301746 h -1.329365 c -1.489858,0 -1.621404,0.04223 -1.621404,0.521582 0,0.422611 0.04332,0.484421 1.53496,2.189715 0.339919,0.388608 0.618541,0.731028 0.618541,0.760471 0,0.05308 0.116711,0.192119 1.353311,1.606804 0.351997,0.402685 0.640152,0.755186 0.640152,0.783249 0,0.02807 0.222612,0.299439 0.494716,0.603355 0.475921,0.531563 0.508634,0.552539 0.860932,0.552539 0.3523,0 0.385012,-0.02098 0.860934,-0.552539 0.272104,-0.303916 0.494715,-0.57529 0.494715,-0.603355 0,-0.02806 0.288156,-0.380564 0.640152,-0.783249 1.236601,-1.414685 1.353312,-1.553726 1.353312,-1.606804 0,-0.02944 0.278621,-0.371863 0.61854,-0.760471 1.48438,-1.697001 1.534961,-1.768538 1.534961,-2.175696 0,-0.497813 -0.113087,-0.535601 -1.607388,-0.535601 h -1.343381 v -4.301746 c 0,-2.7817091 -0.07051,-4.290836 -0.07944,-4.3508091 -0.0073,-0.049365 -0.03487,-0.145624 -0.07593,-0.242977 C 18.488651,5.6994712 18.43908,5.5809032 18.300131,5.4620932 18.095977,5.2875295 17.962132,5.2973829 16.139621,5.2973829 Z m 3.798853,16.1573921 c -0.03078,0.0053 0.04449,0.05562 0.228375,0.151861 1.099996,0.575688 1.28226,1.349571 0.147003,1.907383 -2.610566,1.282712 -9.035327,0.830861 -9.567115,-0.681274 -0.10681,-0.303699 -0.02082,-0.611735 0.344791,-1.068644 0.373122,-0.466291 0.216935,-0.452393 -0.57106,-0.02973 -0.491253,0.263504 -0.6162633,0.705267 -0.6572753,1.075688 -0.02756,0.248924 0.111546,1.006365 0.5597733,1.2335 0.645081,0.482746 2.205411,1.03191 3.63337,1.162092 0.197372,0.01794 1.510116,0.09003 2.343466,0.07523 2.117216,-0.03758 3.709854,-0.537805 4.787971,-1.067259 0.561182,-0.275591 0.761685,-1.262467 0.727322,-1.574502 -0.05255,-0.477169 -0.369124,-0.81129 -1.241056,-1.134145 -0.384256,-0.142281 -0.695995,-0.057 -0.735565,-0.05021 z m -11.0951743,0.04439 c -0.0894,0.0081 -0.4558741,-0.165993 -0.886765,-0.04214 -3.1631893,0.909277 -4.0833924,3.165418 -2.7814515,4.439249 1.0597912,1.03691 3.7619575,2.217544 7.2946398,2.600315 1.433464,0.155314 7.194327,-0.105409 8.559122,-0.2875 4.88527,-0.65177 5.691279,-2.741143 5.431825,-4.367646 -0.123224,-0.772477 -0.967511,-1.456785 -2.611199,-1.992423 -1.071597,-0.349206 -1.472601,-0.558566 -0.743534,-0.127913 1.930747,1.140472 2.142732,1.785556 2.142732,2.530844 0,1.235579 -2.282812,1.92577 -6.173301,2.414218 -1.294383,0.162508 -5.685769,0.136057 -6.954842,-0.04175 C 8.8358407,26.164222 6.7668064,25.128262 6.2488181,24.112922 6.0517289,23.726581 6.0515178,23.551746 6.2476519,23.167296 6.5194394,22.634549 7.2384574,22.264223 8.3843173,21.82812 8.8506207,21.65065 8.8432997,21.499165 8.8433017,21.499165 Z"
       sodipodi:nodetypes="ssscscssssssssssssssscscsssssssssscsscssssssssssssscssscs" />
  </g>
</svg>
