<?xml version="1.0" encoding="UTF-8" standalone="no"?>
<svg
   width="128px"
   height="128px"
   viewBox="0 0 128 128"
   version="1.1"
   id="svg7"
   sodipodi:docname="appimagepool.svg"
   inkscape:version="1.1.2 (0a00cf5339, 2022-02-04)"
   xmlns:inkscape="http://www.inkscape.org/namespaces/inkscape"
   xmlns:sodipodi="http://sodipodi.sourceforge.net/DTD/sodipodi-0.dtd"
   xmlns="http://www.w3.org/2000/svg"
   xmlns:svg="http://www.w3.org/2000/svg">
  <defs
     id="defs11" />
  <sodipodi:namedview
     id="namedview9"
     pagecolor="#505050"
     bordercolor="#eeeeee"
     borderopacity="1"
     inkscape:pageshadow="0"
     inkscape:pageopacity="0"
     inkscape:pagecheckerboard="0"
     showgrid="false"
     inkscape:zoom="5.6171875"
     inkscape:cx="63.910987"
     inkscape:cy="64"
     inkscape:window-width="1920"
     inkscape:window-height="1014"
     inkscape:window-x="0"
     inkscape:window-y="32"
     inkscape:window-maximized="1"
     inkscape:current-layer="surface1" />
  <g
     id="surface1">
    <path
       style=" stroke:none;fill-rule:nonzero;fill:rgb(94.901961%,94.901961%,94.901961%);fill-opacity:1;"
       d="M 25.371094 5.941406 L 103.070312 5.941406 C 113.800781 5.941406 122.5 14.640625 122.5 25.371094 L 122.5 103.015625 C 122.5 113.746094 113.800781 122.445312 103.070312 122.445312 L 25.371094 122.445312 C 14.640625 122.445312 5.941406 113.746094 5.941406 103.015625 L 5.941406 25.371094 C 5.941406 14.640625 14.640625 5.941406 25.371094 5.941406 Z M 25.371094 5.941406 "
       id="path2" />
    <path
       style="fill:#1478bd;fill-opacity:1;fill-rule:nonzero;stroke:#ffffff;stroke-width:1.13687;stroke-linecap:butt;stroke-linejoin:miter;stroke-miterlimit:4;stroke-opacity:0.196078"
       d="m 63.434414,24.059712 c -6.30078,0 -6.710938,0.03125 -7.464842,0.570315 -0.500002,0.355468 -0.898439,0.671874 -1.058596,1.117185 -0.125,0.339845 -0.140623,0.67969 -0.171875,0.941408 -0.02734,0.207032 -0.125,5.410157 -0.125,15.023439 V 56.57534 h -4.593749 c -5.148438,0 -5.601562,0.148436 -5.601562,1.804688 0,1.460937 0.148436,1.671873 5.304687,7.566406 1.171875,1.339842 2.136719,2.523435 2.136719,2.625 0,0.183592 0.402345,0.66406 4.675783,5.554684 1.214841,1.390628 2.210937,2.609378 2.210937,2.703127 0,0.09766 0.76953,1.039061 1.710935,2.089844 1.644534,1.832031 1.753908,1.906249 2.972658,1.906249 1.218749,0 1.332032,-0.07031 2.976562,-1.906249 0.941405,-1.050783 1.707031,-1.992188 1.707031,-2.089844 0,-0.09375 0.996095,-1.312499 2.210937,-2.703127 4.277346,-4.890624 4.679688,-5.371092 4.679688,-5.554684 0,-0.101565 0.960939,-1.285158 2.136719,-2.625 5.132812,-5.863284 5.304687,-6.113282 5.304687,-7.519532 0,-1.722656 -0.390624,-1.851562 -5.554688,-1.851562 H 72.243009 V 41.712059 c 0,-9.613282 -0.23828,-14.828128 -0.269532,-15.03516 -0.05859,-0.289062 -0.148436,-0.570312 -0.265624,-0.839843 -0.160157,-0.390624 -0.332031,-0.796874 -0.812499,-1.207029 -0.707034,-0.601563 -1.167971,-0.570315 -7.464845,-0.570315 z m 13.121094,55.832034 c -0.101562,0.01953 0.156252,0.191406 0.792969,0.527342 3.800783,1.984375 4.429687,4.664062 0.507812,6.589845 -9.019532,4.433592 -31.218749,2.867188 -33.058593,-2.355468 -0.371093,-1.050783 -0.07422,-2.113284 1.191406,-3.691409 1.289063,-1.613278 0.746094,-1.562499 -1.976562,-0.105466 -1.691408,0.914061 -2.128906,2.441404 -2.269533,3.718749 -0.09375,0.859374 0.386719,3.476564 1.933596,4.26172 2.230468,1.667969 7.621094,3.5625 12.554688,4.015625 0.683594,0.0625 5.218748,0.312497 8.101561,0.261718 7.312501,-0.132813 12.820311,-1.859374 16.542969,-3.6875 1.9375,-0.953126 2.628908,-4.363282 2.51172,-5.441406 -0.179688,-1.648438 -1.273437,-2.804687 -4.285156,-3.921875 -1.328127,-0.488281 -2.406251,-0.195314 -2.546877,-0.171875 z M 38.219572,80.04409 c -0.312501,0.02734 -1.578125,-0.57422 -3.062502,-0.144531 -10.933593,3.144529 -14.113282,10.937498 -9.613281,15.343749 3.664061,3.578126 13.000002,7.660152 25.207032,8.984372 4.953124,0.53516 24.859374,-0.36719 29.578127,-0.99609 16.878905,-2.25391 19.664062,-9.472658 18.769531,-15.093751 -0.429689,-2.66797 -3.343751,-5.031251 -9.027344,-6.882812 -3.699219,-1.210937 -5.085938,-1.933593 -2.566408,-0.445311 6.667971,3.941406 7.406249,6.171874 7.406249,8.746091 0,4.273438 -7.890622,6.65625 -21.335935,8.34375 -4.472657,0.562502 -19.644531,0.46875 -24.031252,-0.144532 -11.351561,-1.589842 -18.5,-5.171873 -20.289061,-8.679686 -0.67969,-1.332032 -0.67969,-1.937501 -0.0039,-3.265625 0.9375,-1.839843 3.421877,-3.121093 7.382814,-4.628905 1.613282,-0.609377 1.589843,-1.136719 1.589843,-1.136719 z m 0,0"
       id="path4" />
  </g>
</svg>
