<svg width="128" height="128" viewBox="0 0 33.867 33.867" xmlns="http://www.w3.org/2000/svg">
  <path d="M16.14 5.297c-1.823 0-1.942.01-2.16.165-.145.103-.26.195-.306.324-.036.098-.041.197-.05.272-.008.06-.036 1.566-.036 4.348v4.301h-1.33c-1.49 0-1.621.043-1.621.522 0 .423.043.484 1.535 2.19.34.388.619.73.619.76 0 .053.116.192 1.353 1.607.352.403.64.755.64.783 0 .028.223.3.495.604.476.531.508.552.86.552.353 0 .386-.02.862-.552.272-.304.494-.576.494-.604 0-.028.288-.38.64-.783 1.237-1.415 1.354-1.554 1.354-1.607 0-.03.278-.372.618-.76 1.485-1.697 1.535-1.769 1.535-2.176 0-.498-.113-.536-1.607-.536H18.69v-4.301c0-2.782-.07-4.291-.079-4.351a1.177 1.177 0 0 0-.076-.243c-.047-.113-.097-.231-.236-.35-.204-.174-.338-.165-2.16-.165Zm3.798 16.158c-.03.005.045.055.229.152 1.1.575 1.282 1.35.147 1.907-2.61 1.283-9.035.83-9.567-.681-.107-.304-.021-.612.345-1.069.373-.466.216-.452-.572-.03-.49.264-.616.706-.657 1.076-.027.249.112 1.006.56 1.234.645.482 2.205 1.031 3.633 1.162.198.018 1.51.09 2.344.075 2.117-.038 3.71-.538 4.788-1.067.561-.276.761-1.263.727-1.575-.052-.477-.369-.811-1.241-1.134-.384-.142-.696-.057-.736-.05zm-11.095.044c-.09.008-.456-.166-.886-.042-3.164.91-4.084 3.165-2.782 4.44 1.06 1.036 3.762 2.217 7.295 2.6 1.433.155 7.194-.106 8.559-.288 4.885-.652 5.691-2.741 5.432-4.368-.124-.772-.968-1.456-2.612-1.992-1.071-.35-1.472-.559-.743-.128 1.93 1.14 2.143 1.786 2.143 2.531 0 1.236-2.283 1.926-6.174 2.414-1.294.163-5.685.136-6.954-.042-3.285-.46-5.354-1.496-5.872-2.511-.197-.386-.197-.561-.001-.946.271-.532.99-.903 2.136-1.339.467-.177.46-.329.46-.329Z" fill="#167abf" stroke="#fff" stroke-width=".329" stroke-opacity=".196"/>
</svg>
